Coordinates
version=1
nRows=20
nColumns=38
inDegrees=no

Units are S.I. units (second, meters, Newtons, ...)
If the header above contains a line with 'inDegrees', this indicates whether rotational values are in degrees (yes) or radians (no).

endheader
time	pelvis_tilt	pelvis_list	pelvis_rotation	pelvis_tx	pelvis_ty	pelvis_tz	hip_flexion_r	hip_adduction_r	hip_rotation_r	knee_angle_r	ankle_angle_r	subtalar_angle_r	mtp_angle_r	hip_flexion_l	hip_adduction_l	hip_rotation_l	knee_angle_l	ankle_angle_l	subtalar_angle_l	mtp_angle_l	lumbar_extension	lumbar_bending	lumbar_rotation	arm_flex_r	arm_add_r	arm_rot_r	elbow_flex_r	pro_sup_r	wrist_flex_r	wrist_dev_r	arm_flex_l	arm_add_l	arm_rot_l	elbow_flex_l	pro_sup_l	wrist_flex_l	wrist_dev_l
61.43	0.183399	1.03759	1.50039	0.657949	0.264137	0.76848	1.5212	-0.21923	-0.0849949	1.48704	-0.0495185	0	0	1.50265	-0.554325	-0.137292	1.53531	-0.0112988	0	0	-0.665912	-0.147271	0.00772341	0.956809	-0.43679	0.16187	1.16376	0.968278	0	0	1.02064	-0.355847	0.121149	1.28154	1.0757	0	0
61.44	0.182472	1.03094	1.50078	0.657896	0.264846	0.768616	1.52557	-0.218524	-0.0852662	1.48438	-0.050126	0	0	1.50698	-0.553927	-0.137895	1.53318	-0.0114085	0	0	-0.66145	-0.14657	0.00749928	0.95525	-0.434712	0.162347	1.16453	0.972328	0	0	1.01645	-0.35708	0.116448	1.28646	1.07859	0	0
61.45	0.181211	1.02411	1.50132	0.657859	0.265589	0.76873	1.5301	-0.21762	-0.0851788	1.48159	-0.0506443	0	0	1.51103	-0.553723	-0.138958	1.53083	-0.0113536	0	0	-0.656606	-0.145699	0.00703146	0.953785	-0.431982	0.162702	1.16523	0.9753	0	0	1.01166	-0.359004	0.111501	1.29181	1.08154	0	0
61.46	0.179883	1.0173	1.50187	0.657809	0.266355	0.768881	1.53449	-0.216693	-0.085049	1.47876	-0.0510358	0	0	1.51466	-0.553498	-0.14028	1.52825	-0.0112707	0	0	-0.651936	-0.143969	0.00620766	0.952831	-0.428285	0.162685	1.16615	0.977529	0	0	1.00601	-0.361399	0.105281	1.29763	1.08361	0	0
61.47	0.179112	1.01104	1.50251	0.657669	0.267051	0.769118	1.53828	-0.216325	-0.0853258	1.47631	-0.0513518	0	0	1.51814	-0.552421	-0.140953	1.52567	-0.0114257	0	0	-0.647942	-0.14158	0.00544331	0.95201	-0.424823	0.162362	1.16694	0.979407	0	0	1.00105	-0.36319	0.0993658	1.30258	1.08452	0	0
61.48	0.178192	1.00471	1.50329	0.657543	0.267746	0.769393	1.54216	-0.215767	-0.0855187	1.47404	-0.0517206	0	0	1.52167	-0.55143	-0.141794	1.52298	-0.0118322	0	0	-0.644132	-0.139552	0.00467138	0.951007	-0.421456	0.162284	1.16791	0.981218	0	0	0.996625	-0.365215	0.0942509	1.30748	1.0842	0	0
61.49	0.177033	0.998454	1.50435	0.657368	0.268472	0.769708	1.54592	-0.215446	-0.0854025	1.47131	-0.0523572	0	0	1.52497	-0.550454	-0.143057	1.52021	-0.0123983	0	0	-0.640938	-0.137922	0.00350904	0.949772	-0.417843	0.161177	1.16967	0.981489	0	0	0.992772	-0.36808	0.0901878	1.31296	1.08323	0	0
61.5	0.176044	0.992184	1.50519	0.657146	0.269259	0.770004	1.54963	-0.215275	-0.085126	1.46833	-0.0530943	0	0	1.52836	-0.549503	-0.144123	1.51761	-0.0129127	0	0	-0.637486	-0.136144	0.00277489	0.947953	-0.414713	0.159448	1.17198	0.980821	0	0	0.988739	-0.370692	0.0863397	1.31806	1.08259	0	0
61.51	0.175201	0.984874	1.50587	0.656864	0.270044	0.77014	1.5545	-0.215054	-0.0850227	1.46565	-0.0538172	0	0	1.53322	-0.548261	-0.144515	1.51528	-0.0134325	0	0	-0.632366	-0.134193	0.0023841	0.945179	-0.412289	0.158156	1.17477	0.980833	0	0	0.983818	-0.37283	0.0820932	1.32314	1.08222	0	0
61.52	0.17703	0.970163	1.50471	0.656466	0.270359	0.769261	1.56664	-0.214278	-0.0860242	1.46203	-0.0547733	0	0	1.5488	-0.544868	-0.139416	1.5131	-0.0140873	0	0	-0.618664	-0.129699	0.0023736	0.939705	-0.409777	0.156594	1.17968	0.982264	0	0	0.974451	-0.374983	0.0753872	1.33118	1.08172	0	0
61.53	0.176919	0.968281	1.50459	0.656175	0.271265	0.770072	1.56563	-0.214014	-0.0866521	1.45961	-0.055006	0	0	1.54758	-0.544494	-0.140563	1.51086	-0.0140979	0	0	-0.619594	-0.127584	0.00227392	0.938755	-0.408098	0.155902	1.1832	0.983196	0	0	0.972329	-0.376223	0.0717019	1.33418	1.08083	0	0
61.54	0.174058	0.972984	1.50635	0.656058	0.27239	0.771858	1.55825	-0.213655	-0.0858171	1.45728	-0.0554836	0	0	1.53672	-0.545428	-0.146438	1.50763	-0.0140763	0	0	-0.628692	-0.127604	0.00071623	0.940985	-0.405652	0.1557	1.18626	0.985448	0	0	0.974028	-0.378144	0.0685982	1.33498	1.07968	0	0
61.55	0.173505	0.967784	1.50645	0.655785	0.273149	0.772232	1.5609	-0.212962	-0.0859957	1.4545	-0.0561224	0	0	1.53894	-0.544617	-0.14722	1.50507	-0.013999	0	0	-0.625582	-0.125744	3.75815e-05	0.938855	-0.40365	0.155487	1.19034	0.988681	0	0	0.970189	-0.378726	0.0630737	1.33681	1.07907	0	0
61.56	0.175808	0.955483	1.50444	0.655358	0.273599	0.771606	1.57033	-0.211906	-0.0875173	1.45112	-0.056602	0	0	1.55134	-0.542404	-0.143124	1.50318	-0.0137441	0	0	-0.614028	-0.121447	-0.000164506	0.934628	-0.401846	0.156485	1.19475	0.993827	0	0	0.961876	-0.379504	0.0559865	1.34044	1.07764	0	0
61.57	0.173315	0.959867	1.50578	0.655146	0.274813	0.773338	1.56307	-0.211404	-0.0868918	1.44901	-0.0566552	0	0	1.54083	-0.543649	-0.149257	1.50037	-0.0135996	0	0	-0.622206	-0.121429	-0.0019527	0.937651	-0.399788	0.158244	1.19598	0.996793	0	0	0.96293	-0.381237	0.0531424	1.33892	1.07542	0	0
61.58	0.173047	0.955884	1.5056	0.654842	0.2756	0.773957	1.56415	-0.210381	-0.0870705	1.44619	-0.0570206	0	0	1.54188	-0.543078	-0.150465	1.49792	-0.0137326	0	0	-0.620075	-0.119625	-0.00278332	0.93739	-0.397897	0.159195	1.19731	0.999066	0	0	0.959355	-0.381977	0.0487343	1.339	1.074	0	0
61.59	0.172805	0.951601	1.50558	0.654485	0.276347	0.774531	1.56568	-0.209727	-0.0871863	1.44332	-0.0576134	0	0	1.54322	-0.542147	-0.151486	1.4954	-0.01369	0	0	-0.617278	-0.117816	-0.00349881	0.936963	-0.396235	0.160033	1.19815	1.0007	0	0	0.955614	-0.382414	0.0449432	1.33875	1.07246	0	0
61.6	0.172895	0.949443	1.50528	0.654088	0.277169	0.775344	1.56497	-0.209363	-0.0874399	1.4406	-0.0570114	0	0	1.54219	-0.541521	-0.152751	1.49307	-0.0133807	0	0	-0.616453	-0.116455	-0.00244575	0.935944	-0.396987	0.160309	1.19973	0.997454	0	0	0.954286	-0.380732	0.0434189	1.33576	1.07264	0	0
61.61	0.171787	0.94197	1.50597	0.65372	0.277736	0.775556	1.57012	-0.208501	-0.0865259	1.43723	-0.0592716	0	0	1.54676	-0.539813	-0.15357	1.49002	-0.0134681	0	0	-0.610058	-0.114715	-0.00512027	0.935816	-0.392951	0.161908	1.19898	1.00442	0	0	0.947278	-0.383373	0.0379656	1.33901	1.06906	0	0
61.62	0.171062	0.937103	1.50618	0.65332	0.278402	0.776118	1.5723	-0.207672	-0.0860303	1.43411	-0.0599776	0	0	1.54831	-0.538807	-0.155002	1.487	-0.0134564	0	0	-0.606382	-0.113656	-0.00599917	0.93554	-0.391767	0.163281	1.19884	1.00662	0	0	0.943078	-0.383758	0.0345629	1.33971	1.06885	0	0
